<svg version="1" xmlns="http://www.w3.org/2000/svg" width="400" height="400" viewBox="0 0 300.000000 300.000000"><path d="M177 3.9c-11.2 3.6-17.1 8.6-21.7 18.6-2.3 5-2.8 7.7-3.1 16.1-.5 11.9.6 16.6 7.4 31.1 6.8 14.8 9.4 24.6 9.4 36.2 0 17.8-5.2 29.3-20.5 44.7C123.7 175.8 87.2 190 47.3 190c-8 0-15.3.5-16.4 1-2.4 1.3-2.5 5.7-.2 8.2 1.5 1.7 1.4 1.8-4.4 1.8-5 0-6.3.4-8.2 2.4-5.8 6.2 3 14.6 27.2 26.1 13.9 6.6 30.4 12.8 45 17 9.4 2.6 27.6 6.5 30.8 6.5 4.1 0 5.3 11.3 1.9 18-1.1 2.1-2.4 4.1-3 4.5-.6.3-1.7 2-2.6 3.7-3 5.8.6 9.8 12.2 13.8 11.1 3.8 36.5 6.8 48 5.5 7.3-.8 9-2.4 5.3-5.4l-2.3-1.8 2.5-1.4c1.3-.8 3.8-2.1 5.4-3 1.7-.8 2.9-1.9 2.9-2.4-.1-.6-2.5-1.8-5.3-2.9-5.5-2-6-2.9-3.4-5.8.9-1 1.3-2.1.9-2.6-.4-.4-10.2-.9-21.7-1.1l-20.9-.3-.9-3.7c-.9-3.1-.2-10.4 1.1-11.6.2-.2 8.9-.6 19.3-.8 20.7-.5 33-2.4 46.7-7.4 35.5-12.8 53.2-45.4 43.7-80.8-2.2-8-8-18.4-19.9-35.5-6.7-9.6-13.7-20.7-15.5-24.6-5.3-10.7-6.3-23.3-2.6-30.1 1.9-3.6 6.1-5.1 20.3-7.4 14.3-2.3 26.4-5.7 34.1-9.6 9.8-4.9 19.6-16.6 18.3-21.7-.8-3.3-3.3-3.9-11.1-2.5-3.9.6-11.5.9-17.9.7-15.7-.7-20.2-3-30.6-15.8-7.1-8.6-9.9-11.3-15.5-14.2-9.5-5-23.4-6.2-33.5-2.9zm35.4 30.2c5.4 4.3 2.2 13.3-4.7 13.3-4.9 0-7.7-2.7-7.7-7.5 0-4.2 3.5-7.9 7.5-7.9 1.2 0 3.4.9 4.9 2.1z"/></svg>